<?xml version="1.0" encoding="utf-8"?>
<!DOCTYPE svg PUBLIC "-//W3C//DTD SVG 20010904//EN" "http://www.w3.org/TR/2001/REC-SVG-20010904/DTD/svg10.dtd">
<svg version="1.0" xmlns="http://www.w3.org/2000/svg" width="494px" height="351px" viewBox="0 0 494 351" preserveAspectRatio="xMidYMid meet">
 <g fill="#595656">
  <path d="M90 349.3 c-4.1 -1.6 -7.6 -5.3 -12.4 -12.7 -6.2 -9.6 -9.6 -12.6 -14.2 -12.6 -2.9 0 -3.4 -0.3 -3.4 -2.4 0 -2.5 42.4 -112 44.3 -114.4 0.5 -0.6 1.6 -1.2 2.3 -1.2 0.8 0 3.3 -0.9 5.7 -1.9 2.3 -1.1 6 -2.5 8.2 -3.1 2.2 -0.7 5.8 -2.1 8 -3 15.5 -6.9 86.2 -31.3 121 -41.9 83.5 -25.2 142.4 -36.5 181 -34.8 17.5 0.8 32.5 4.9 32.5 8.9 0 1.5 -0.3 1.7 -1.9 0.8 -3.7 -1.9 -3.6 -1 0.2 1.5 2 1.4 3.7 2.7 3.7 3 0 0.2 -28.8 47.2 -64 104.5 -35.2 57.3 -64 104.3 -64 104.6 0 0.2 1.3 0.4 2.9 0.4 3.3 0 6.8 -3 10.6 -9.1 8.2 -13.3 11.3 -15.9 18.9 -15.9 3.9 0 5.2 0.6 8.6 3.7 2.3 2 5.9 6.7 8.1 10.4 4.9 8.5 7.9 10.9 13.3 10.9 5 0 7.7 -1.7 10.7 -6.7 9.2 -15.3 12.5 -18.3 20.2 -18.3 6 0 10 3.5 17.3 14.7 2.9 4.5 6.2 8.6 7.3 9.2 2.5 1.4 8.7 1.4 11.2 0.1 1.1 -0.6 4.8 -5.5 8.4 -10.9 6.7 -10.2 10.8 -13.6 15.5 -13 3.7 0.6 3 3.1 -1 4.2 -4.6 1.2 -6.5 2.9 -11.2 10.9 -4.8 8.2 -10.5 13.5 -15.2 14.3 -5.6 1.1 -11.7 -2.4 -16.2 -9.3 -7.6 -11.8 -8.8 -13.4 -11.5 -14.8 -3.7 -1.8 -7.9 -1.8 -10.7 0.2 -1.3 0.9 -4.7 5.3 -7.6 9.8 -8.8 13.6 -14.5 16.8 -23.1 12.6 -3.7 -1.8 -5.6 -3.9 -10.9 -11.9 -6.4 -9.8 -9.2 -12.1 -14.4 -12.1 -4.2 0 -6.9 2.5 -12.7 11.4 -8.7 13.6 -14.2 16.6 -22.9 12.8 -3.9 -1.8 -5.4 -3.4 -10.9 -11.9 -6.5 -10.1 -9.2 -12.3 -14.7 -12.3 -4 0 -8 3.7 -12.8 11.9 -8.1 13.5 -16.1 17.1 -25.1 11.3 -1.3 -0.9 -5.2 -5.9 -8.6 -11.2 -3.7 -5.6 -7.5 -10.1 -9 -10.8 -6.9 -3.2 -12.1 -0.2 -18.4 10.7 -4.4 7.4 -8.2 11.5 -12.4 13 -8.4 3.2 -14 -0.6 -23.5 -16.2 -3.8 -6 -7.5 -8.7 -12 -8.7 -4.2 0 -7.5 3.1 -14.2 13.1 -6.8 10.2 -9.6 12.4 -15.9 12.4 -6.3 0 -10.8 -3.4 -16.2 -12.5 -5.2 -8.9 -9.8 -13 -14.4 -13 -4.5 0 -7.6 2.8 -14.5 13.1 -3 4.5 -6.7 9.1 -8.1 10.2 -2.7 1.9 -9.3 3.1 -11.9 2z"/>
  <path d="M7.6 325.5 c-1.1 -0.8 -3 -1.5 -4.3 -1.5 -1.7 0 -2.3 -0.6 -2.3 -2.1 0 -1.9 0.4 -2.1 4 -1.6 2.4 0.3 4.1 0.1 4.4 -0.7 0.2 -0.6 0.5 0.8 0.5 3.2 0.1 2.3 0 4.2 -0.1 4.2 -0.2 0 -1.2 -0.7 -2.2 -1.5z"/>
 </g>
 <g fill="#c9caca">
  <path d="M9 246.4 l0 -16.7 7.7 -9.1 c4.3 -5 7.1 -8.5 6.2 -7.9 -1.7 1.3 -2.9 0.8 -2.9 -1.3 0 -0.9 46.1 -56.5 52.1 -62.9 0.6 -0.5 1.3 -0.5 2.1 0.3 0.8 0.8 0.8 1.5 -0.2 2.9 -2.3 3.3 6 -6 16.2 -18.2 5.6 -6.6 8.8 -10.8 7.2 -9.2 -2.7 2.5 -3.7 2.7 -10.7 2.7 l-7.7 0 0 -16.5 0 -16.5 6 -12 c3.3 -6.6 6.5 -12 7 -12 0.6 0 1.1 6.6 1.2 16.3 l0.3 16.2 10.3 0.3 10.2 0.3 0 31.4 c0 20.3 0.4 31.5 1 31.5 0.6 0 1 1.8 1 4 l0 3.9 -51.9 44.6 c-28.5 24.5 -52.6 44.5 -53.5 44.5 -1.4 0 -1.6 -2 -1.6 -16.6z m21 -41.4 c2.9 -3.3 5 -6 4.7 -6 -0.3 0 -2.8 2.7 -5.7 6 -2.9 3.3 -5 6 -4.7 6 0.3 0 2.8 -2.7 5.7 -6z m11 -13 c2.9 -3.3 5 -6 4.7 -6 -0.3 0 -2.8 2.7 -5.7 6 -2.9 3.3 -5 6 -4.7 6 0.3 0 2.8 -2.7 5.7 -6z m13.6 -16.2 l2.9 -3.3 -3.2 2.9 c-3.1 2.8 -3.8 3.6 -3 3.6 0.2 0 1.6 -1.5 3.3 -3.2z m11 -13 l2.9 -3.3 -3.2 2.9 c-3.1 2.8 -3.8 3.6 -3 3.6 0.2 0 1.6 -1.5 3.3 -3.2z m45.6 -54.3 c1.1 -2.1 1 -2 -3.7 3.5 l-3 3.5 2.8 -2.5 c1.6 -1.4 3.3 -3.4 3.9 -4.5z"/>
  <path d="M106.4 203.8 c0.4 -3.5 1.2 -6.4 1.7 -6.6 0.5 -0.2 0.9 -1.5 0.9 -2.8 0 -1.3 0.5 -2.4 1 -2.4 0.6 0 1 -1.1 1 -2.5 0 -1.4 0.4 -2.5 0.9 -2.5 1.2 0 4.1 -7.4 4.1 -10.5 0 -1.4 0.5 -2.5 1 -2.5 0.6 0 1 -1.1 1 -2.5 0 -1.4 0.5 -2.5 1 -2.5 0.6 0 1 -0.8 1 -1.7 0.1 -1.9 2.4 -5.6 3.1 -4.9 0.2 0.3 2.7 -1.6 5.4 -4.1 l5 -4.5 -5.2 4.2 c-5 4 -5.3 4.1 -5.3 1.8 0 -4.1 6.6 -8.1 27.4 -16.6 39.9 -16.5 117.6 -44.2 123.6 -44.2 1.6 0 2 0.4 1.6 1.6 -0.4 1.2 -0.2 1.5 0.9 1.1 3.9 -1.6 41.7 -12 54.5 -15.2 41 -10 68 -13.9 97 -13.9 24.6 0 34.7 1.7 47.7 7.8 6.7 3.2 16.3 10.7 16.3 12.8 0 0.6 -23.1 37.4 -25.4 40.5 -0.1 0.1 -2.8 -1.1 -6.1 -2.6 -12.7 -6 -31.1 -8.1 -54.5 -6.1 -38.8 3.2 -90.9 15 -159.5 36 -34.7 10.7 -94.3 31.4 -130.4 45.4 -5.1 2 -9.5 3.6 -9.8 3.6 -0.3 0 -0.2 -2.8 0.1 -6.2z"/>
 </g>
 <g fill="#efefef">
  <path d="M113 171.5 c1 -1.2 0.9 -1.6 -0.4 -2.1 -1.5 -0.6 -1.6 -3.8 -1.6 -31.8 l0.1 -31.1 -10.3 -0.5 -10.3 -0.5 0 -17.5 0 -17.5 16.3 -0.3 c13.5 -0.2 16.2 -0.5 16.2 -1.7 0 -1.3 5.8 -1.5 43.5 -1.5 38 0 43.5 0.2 43.5 1.5 0 1.3 4.3 1.5 33 1.5 l33.1 0 -0.3 15.6 -0.3 15.5 -25.2 8.4 c-29.4 9.8 -67.3 23.9 -96.6 35.8 -15.7 6.5 -21.9 9.6 -25.7 12.7 -2.8 2.3 -5 4.4 -5 4.7 0 0.3 0.7 0 1.5 -0.7 2.1 -1.7 2.9 -0.6 1.5 2 -2.1 4 -8.4 8.9 -11.4 9 -2.4 0 -2.7 -0.2 -1.6 -1.5z"/>
 </g>
 <g fill="#e83228">
  <path d="M20.7 213.4 c-0.4 -0.4 -0.7 -7.5 -0.7 -15.8 0 -11.7 0.9 -21.6 3.9 -44.2 3.5 -27.3 4 -29.4 6.9 -34.6 8.2 -14.2 19.7 -20.1 32.3 -16.5 9.1 2.7 8.7 1.9 9.9 22.2 0.5 9.9 1.2 19.9 1.4 22.2 l0.4 4.3 -26 30.7 c-30.6 36.2 -27.3 32.5 -28.1 31.7z"/>
  <path d="M123 65.3 c0 -5.3 1.6 -25.6 2.6 -34.3 0.6 -5 1.2 -6 6.8 -11.8 12.3 -12.8 25.6 -18.9 39.1 -17.9 4 0.3 9.4 1.5 12.2 2.7 l5.1 2.2 10.6 31.1 c5.8 17.2 10.6 31.5 10.6 32 0 0.4 -19.6 0.7 -43.5 0.7 l-43.5 0 0 -4.7z"/>
 </g>
 <g fill="#464342">
  <path d="M27.5 348.6 c-3.8 -1.7 -6.2 -4.4 -11.7 -13.1 -2.5 -3.8 -5.5 -7.9 -6.7 -8.9 -2.2 -2 -2.9 -5.6 -1.1 -5.6 0.6 0 1 -7.9 1 -21.8 l0 -21.8 16.3 -11.9 c8.9 -6.6 22.3 -16.4 29.7 -22 7.4 -5.5 14.5 -10.7 15.7 -11.5 1.2 -0.8 8.7 -6.3 16.7 -12.3 10.8 -7.9 15.3 -10.7 17.5 -10.7 2.8 0 2.9 0.1 1.7 2.4 -0.7 1.4 -10.9 27.2 -22.7 57.5 -11.8 30.3 -21.9 55.1 -22.5 55.1 -2.4 0 -6.8 4.7 -11.9 12.5 -2.9 4.5 -6.7 9.2 -8.4 10.4 -4 2.9 -9.7 3.6 -13.6 1.7z"/>
 </g>
 <g fill="#959696">
  <path d="M9 271.3 l0.1 -10.8 5.2 -4.3 c2.9 -2.3 7.3 -6.1 10 -8.5 2.6 -2.3 6.6 -5.8 8.9 -7.7 2.2 -1.9 5.5 -4.7 7.2 -6.2 21.1 -18.2 83.8 -71.8 84.6 -72.3 0.6 -0.4 1.3 -0.5 1.6 -0.2 0.7 0.6 -1.7 5.7 -2.7 5.7 -0.5 0 -0.6 0.6 -0.3 1.4 0.3 0.7 -0.1 2 -0.9 2.7 -0.7 0.8 -1.2 1.9 -1 2.5 0.2 0.7 -0.3 1.8 -1.1 2.7 -0.8 0.8 -1.2 1.7 -0.9 2 0.8 0.8 -3.7 11.7 -4.8 11.7 -0.5 0 -0.6 0.6 -0.3 1.4 0.3 0.7 -0.1 2 -0.9 2.7 -0.7 0.8 -1.2 1.9 -1 2.5 0.2 0.7 -0.2 1.8 -0.9 2.5 -1.2 1.3 -1.7 3.6 -1.9 7.9 -0.1 1.3 -23.2 18.5 -89.1 66.5 l-11.8 8.5 0 -10.7z"/>
 </g>
</svg>